<svg width="32" height="32" viewBox="0 0 32 32" fill="none" xmlns="http://www.w3.org/2000/svg">
<path d="M6.57997 5.14942C6.89673 5.14942 7.11451 5.20988 7.23329 5.33081C7.35867 5.45174 7.42137 5.67007 7.42137 5.98583V9.75468C7.42137 9.94279 7.35538 10.0805 7.22339 10.1678C7.09141 10.2552 6.94623 10.2988 6.78785 10.2988C6.62947 10.2988 6.48429 10.2552 6.3523 10.1678C6.22692 10.0805 6.16423 9.94279 6.16423 9.75468V6.48968C6.16423 6.33517 6.08834 6.25791 5.93656 6.25791H4.49134C4.33956 6.25791 4.22738 6.20416 4.15478 6.09667C4.08219 5.98918 4.0459 5.85818 4.0459 5.70367C4.0459 5.54915 4.08219 5.41815 4.15478 5.31066C4.22738 5.20317 4.33956 5.14942 4.49134 5.14942H6.57997ZM10.193 5.14942C10.5098 5.14942 10.7275 5.20988 10.8463 5.33081C10.9717 5.45174 11.0344 5.67007 11.0344 5.98583V9.75468C11.0344 9.94279 10.9684 10.0805 10.8364 10.1678C10.7044 10.2552 10.5593 10.2988 10.4009 10.2988C10.2425 10.2988 10.0973 10.2552 9.96534 10.1678C9.83996 10.0805 9.77727 9.94279 9.77727 9.75468V6.48968C9.77727 6.33517 9.70138 6.25791 9.54959 6.25791H8.25286C8.10108 6.25791 7.98889 6.20416 7.9163 6.09667C7.84371 5.98918 7.80742 5.85818 7.80742 5.70367C7.80742 5.54915 7.84371 5.41815 7.9163 5.31066C7.98889 5.20317 8.10108 5.14942 8.25286 5.14942H10.193Z" fill="#7C7C7C"/>
<path d="M12.6395 14.6056V15.4483H2.80878V14.6056H12.6395ZM14.6056 12.6395V2.80878C14.6056 1.72291 13.7254 0.842633 12.6395 0.842633H2.80878C1.72291 0.842633 0.842633 1.72291 0.842633 2.80878V12.6395C0.842633 13.7254 1.72291 14.6056 2.80878 14.6056V15.4483L2.66422 15.4447C1.22803 15.3719 0.0763714 14.2202 0.00356583 12.7841L0 12.6395V2.80878C4.38269e-08 1.30601 1.18016 0.0787985 2.66422 0.00356583L2.80878 0H12.6395L12.7841 0.00356583C14.2681 0.0787985 15.4483 1.30601 15.4483 2.80878V12.6395L15.4447 12.7841C15.3719 14.2202 14.2202 15.3719 12.7841 15.4447L12.6395 15.4483V14.6056C13.7254 14.6056 14.6056 13.7254 14.6056 12.6395Z" fill="#7C7C7C"/>
<path d="M26.7662 5.14942C27.0749 5.14942 27.2872 5.20669 27.4029 5.32122C27.5251 5.43575 27.5862 5.64253 27.5862 5.94158V9.13887C27.5862 9.43792 27.5251 9.64471 27.4029 9.75924C27.2872 9.87377 27.0749 9.93103 26.7662 9.93103H22.5212C22.2125 9.93103 21.997 9.87377 21.8748 9.75924C21.7591 9.64471 21.7012 9.43792 21.7012 9.13887V5.94158C21.7012 5.64253 21.7591 5.43575 21.8748 5.32122C21.997 5.20669 22.2125 5.14942 22.5212 5.14942H26.7662ZM23.1773 6.18019C23.0293 6.18019 22.9554 6.25336 22.9554 6.3997V8.68075C22.9554 8.82709 23.0293 8.90026 23.1773 8.90026H26.1101C26.2581 8.90026 26.332 8.82709 26.332 8.68075V6.3997C26.332 6.25336 26.2581 6.18019 26.1101 6.18019H23.1773Z" fill="#7C7C7C"/>
<path d="M29.1913 14.6056V15.4483H19.3605V14.6056H29.1913ZM31.1574 12.6395V2.80878C31.1574 1.72291 30.2771 0.842633 29.1913 0.842633H19.3605C18.2747 0.842633 17.3944 1.72291 17.3944 2.80878V12.6395C17.3944 13.7254 18.2747 14.6056 19.3605 14.6056V15.4483L19.216 15.4447C17.7798 15.3719 16.6281 14.2202 16.5553 12.7841L16.5518 12.6395V2.80878C16.5518 1.30601 17.7319 0.0787985 19.216 0.00356583L19.3605 0H29.1913L29.3358 0.00356583C30.8199 0.0787985 32 1.30601 32 2.80878V12.6395L31.9965 12.7841C31.9237 14.2202 30.772 15.3719 29.3358 15.4447L29.1913 15.4483V14.6056C30.2771 14.6056 31.1574 13.7254 31.1574 12.6395Z" fill="#7C7C7C"/>
<path d="M7.72427 21.3333C8.64741 21.3333 9.36862 21.5594 9.88789 22.0114C10.4072 22.4569 10.6668 23.0891 10.6668 23.908C10.6668 24.727 10.4072 25.3625 9.88789 25.8145C9.36862 26.26 8.64741 26.4828 7.72427 26.4828C6.80112 26.4828 6.07991 26.26 5.56064 25.8145C5.04137 25.3625 4.78174 24.727 4.78174 23.908C4.78174 23.0891 5.04137 22.4569 5.56064 22.0114C6.07991 21.5594 6.80112 21.3333 7.72427 21.3333ZM7.72427 22.3947C7.41655 22.3947 7.15371 22.434 6.93575 22.5126C6.71778 22.5912 6.54149 22.6993 6.40686 22.8369C6.27223 22.9745 6.17287 23.135 6.10876 23.3184C6.04465 23.5019 6.0126 23.6984 6.0126 23.908C6.0126 24.1177 6.04465 24.3142 6.10876 24.4977C6.17287 24.6811 6.27223 24.8416 6.40686 24.9792C6.54149 25.1168 6.71778 25.2249 6.93575 25.3035C7.15371 25.3821 7.41655 25.4214 7.72427 25.4214C8.03198 25.4214 8.29482 25.3821 8.51279 25.3035C8.73075 25.2249 8.90705 25.1168 9.04167 24.9792C9.1763 24.8416 9.27567 24.6811 9.33977 24.4977C9.40388 24.3142 9.43593 24.1177 9.43593 23.908C9.43593 23.6984 9.40388 23.5019 9.33977 23.3184C9.27567 23.135 9.1763 22.9745 9.04167 22.8369C8.90705 22.6993 8.73075 22.5912 8.51279 22.5126C8.29482 22.434 8.03198 22.3947 7.72427 22.3947Z" fill="#7C7C7C"/>
<path d="M12.6395 31.1574V32H2.80878V31.1574H12.6395ZM14.6056 29.1912V19.3605C14.6056 18.2746 13.7254 17.3944 12.6395 17.3944H2.80878C1.72291 17.3944 0.842633 18.2746 0.842633 19.3605V29.1912C0.842633 30.2771 1.72291 31.1574 2.80878 31.1574V32L2.66422 31.9964C1.22803 31.9236 0.0763714 30.772 0.00356583 29.3358L0 29.1912V19.3605C4.38269e-08 17.8577 1.18016 16.6305 2.66422 16.5553L2.80878 16.5517H12.6395L12.7841 16.5553C14.2681 16.6305 15.4483 17.8577 15.4483 19.3605V29.1912L15.4447 29.3358C15.3719 30.772 14.2202 31.9236 12.7841 31.9964L12.6395 32V31.1574C13.7254 31.1574 14.6056 30.2771 14.6056 29.1912Z" fill="#7C7C7C"/>
<path d="M26.3556 21.7011C26.6805 21.7011 26.9038 21.7616 27.0256 21.8825C27.1542 22.0035 27.2184 22.2218 27.2184 22.5375V26.3064C27.2184 26.4945 27.1508 26.6322 27.0154 26.7196C26.8801 26.8069 26.7312 26.8506 26.5688 26.8506C26.4064 26.8506 26.2575 26.8069 26.1222 26.7196C25.9868 26.6322 25.9192 26.4945 25.9192 26.3064V23.0414C25.9192 22.8869 25.8413 22.8096 25.6857 22.8096H21.4224C21.2667 22.8096 21.1517 22.7559 21.0772 22.6484C21.0028 22.5409 20.9656 22.4099 20.9656 22.2554C20.9656 22.1009 21.0028 21.9699 21.0772 21.8624C21.1517 21.7549 21.2667 21.7011 21.4224 21.7011H26.3556Z" fill="#7C7C7C"/>
<path d="M29.1913 31.1574V32H19.3605V31.1574H29.1913ZM31.1574 29.1912V19.3605C31.1574 18.2746 30.2771 17.3944 29.1913 17.3944H19.3605C18.2747 17.3944 17.3944 18.2746 17.3944 19.3605V29.1912C17.3944 30.2771 18.2747 31.1574 19.3605 31.1574V32L19.216 31.9964C17.7798 31.9236 16.6281 30.772 16.5553 29.3358L16.5518 29.1912V19.3605C16.5518 17.8577 17.7319 16.6305 19.216 16.5553L19.3605 16.5517H29.1913L29.3358 16.5553C30.8199 16.6305 32 17.8577 32 19.3605V29.1912L31.9965 29.3358C31.9237 30.772 30.772 31.9236 29.3358 31.9964L29.1913 32V31.1574C30.2771 31.1574 31.1574 30.2771 31.1574 29.1912Z" fill="#7C7C7C"/>
</svg>
