<svg width="183" height="182" viewBox="0 0 183 182" fill="none" xmlns="http://www.w3.org/2000/svg">
<path d="M25.1 135.75C24.3333 135.75 23.7667 135.483 23.4 134.95C23.0333 134.417 22.85 133.767 22.85 133C22.85 132.267 23.0333 131.633 23.4 131.1C23.7667 130.567 24.3333 130.3 25.1 130.3H34.2C35.8 130.3 36.9 130.6 37.5 131.2C38.1333 131.8 38.45 132.883 38.45 134.45V136.85C38.45 138.05 38.3833 139.25 38.25 140.45C38.1167 141.617 37.95 142.733 37.75 143.8C37.55 144.833 37.3167 145.8 37.05 146.7C36.8167 147.567 36.5833 148.3 36.35 148.9L30.75 147.7C31.2167 146.033 31.5667 144.383 31.8 142.75C32.0333 141.117 32.15 139.417 32.15 137.65V136.9C32.15 136.133 31.7667 135.75 31 135.75H25.1ZM6.7 135.75C5.93333 135.75 5.36667 135.483 5 134.95C4.63333 134.417 4.45 133.767 4.45 133C4.45 132.267 4.63333 131.633 5 131.1C5.36667 130.567 5.93333 130.3 6.7 130.3H16.55C18.15 130.3 19.25 130.6 19.85 131.2C20.4833 131.8 20.8 132.883 20.8 134.45V136.85C20.8 138.05 20.7333 139.25 20.6 140.45C20.4667 141.617 20.2833 142.733 20.05 143.8C19.85 144.833 19.6 145.8 19.3 146.7C19.0333 147.567 18.7667 148.3 18.5 148.9L12.9 147.7C13.4 146.033 13.7833 144.383 14.05 142.75C14.35 141.117 14.5 139.417 14.5 137.65V136.9C14.5 136.133 14.1167 135.75 13.35 135.75H6.7ZM3.8 151.35C3.03333 151.35 2.46667 151.1 2.1 150.6C1.76667 150.067 1.6 149.417 1.6 148.65C1.6 147.95 1.76667 147.35 2.1 146.85C2.46667 146.35 3.03333 146.1 3.8 146.1H41.7C42.4667 146.1 43.0167 146.35 43.35 146.85C43.7167 147.35 43.9 147.95 43.9 148.65C43.9 149.417 43.7167 150.067 43.35 150.6C43.0167 151.1 42.4667 151.35 41.7 151.35H3.8ZM13.15 169.9C13.15 170.4 13.4 170.65 13.9 170.65H37.4C38.1 170.65 38.6167 170.9 38.95 171.4C39.2833 171.9 39.45 172.467 39.45 173.1C39.45 173.767 39.2833 174.35 38.95 174.85C38.6167 175.35 38.1 175.6 37.4 175.6H11.2C9.6 175.6 8.48333 175.3 7.85 174.7C7.25 174.1 6.95 173.017 6.95 171.45V159.6C6.95 158.033 7.25 156.95 7.85 156.35C8.48333 155.75 9.6 155.45 11.2 155.45H36.65C37.35 155.45 37.8667 155.7 38.2 156.2C38.5333 156.7 38.7 157.267 38.7 157.9C38.7 158.567 38.5333 159.15 38.2 159.65C37.8667 160.15 37.35 160.4 36.65 160.4H13.9C13.4 160.4 13.15 160.65 13.15 161.15V163.15H36.25C36.9167 163.15 37.4 163.4 37.7 163.9C38.0333 164.367 38.2 164.9 38.2 165.5C38.2 166.1 38.0333 166.65 37.7 167.15C37.4 167.617 36.9167 167.85 36.25 167.85H13.15V169.9ZM70.6578 146.55C70.6578 148.117 70.3411 149.2 69.7078 149.8C69.1078 150.4 68.0078 150.7 66.4078 150.7H52.7578C51.1578 150.7 50.0411 150.4 49.4078 149.8C48.8078 149.2 48.5078 148.117 48.5078 146.55V134.95C48.5078 133.383 48.8078 132.3 49.4078 131.7C50.0411 131.1 51.1578 130.8 52.7578 130.8H66.4078C68.0078 130.8 69.1078 131.1 69.7078 131.7C70.3411 132.3 70.6578 133.383 70.6578 134.95V146.55ZM64.3578 137.2C64.3578 136.433 63.9745 136.05 63.2078 136.05H55.9578C55.1911 136.05 54.8078 136.433 54.8078 137.2V144.3C54.8078 145.067 55.1911 145.45 55.9578 145.45H63.2078C63.9745 145.45 64.3578 145.067 64.3578 144.3V137.2ZM87.9578 138C88.7578 138 89.3411 138.267 89.7078 138.8C90.0745 139.333 90.2578 139.983 90.2578 140.75C90.2578 141.517 90.0745 142.183 89.7078 142.75C89.3411 143.283 88.7578 143.55 87.9578 143.55H83.2578V150C83.2578 150.933 82.9245 151.617 82.2578 152.05C81.6245 152.483 80.8911 152.7 80.0578 152.7C79.2245 152.7 78.4745 152.483 77.8078 152.05C77.1745 151.617 76.8578 150.933 76.8578 150V131.55C76.8578 130.617 77.1745 129.933 77.8078 129.5C78.4745 129.067 79.2245 128.85 80.0578 128.85C80.8911 128.85 81.6245 129.067 82.2578 129.5C82.9245 129.933 83.2578 130.617 83.2578 131.55V138H87.9578ZM75.8578 162.6C76.6245 162.6 77.0078 162.217 77.0078 161.45V160.75C77.0078 159.983 76.6245 159.6 75.8578 159.6H55.7578C55.0245 159.6 54.4911 159.35 54.1578 158.85C53.8245 158.317 53.6578 157.717 53.6578 157.05C53.6578 156.383 53.8245 155.8 54.1578 155.3C54.4911 154.8 55.0245 154.55 55.7578 154.55H79.0078C80.6078 154.55 81.7078 154.85 82.3078 155.45C82.9411 156.05 83.2578 157.133 83.2578 158.7V163.3C83.2578 164.867 82.9411 165.95 82.3078 166.55C81.7078 167.15 80.6078 167.45 79.0078 167.45H61.1578C60.3911 167.45 60.0078 167.833 60.0078 168.6V169.3C60.0078 170.067 60.3911 170.45 61.1578 170.45H82.1578C82.8911 170.45 83.4245 170.7 83.7578 171.2C84.0911 171.733 84.2578 172.333 84.2578 173C84.2578 173.667 84.0911 174.25 83.7578 174.75C83.4245 175.25 82.8911 175.5 82.1578 175.5H58.0078C56.4078 175.5 55.2911 175.2 54.6578 174.6C54.0578 174 53.7578 172.917 53.7578 171.35V166.75C53.7578 165.183 54.0578 164.1 54.6578 163.5C55.2911 162.9 56.4078 162.6 58.0078 162.6H75.8578ZM94.1156 142.1C94.1156 140.467 94.3656 138.95 94.8656 137.55C95.3656 136.15 96.1156 134.95 97.1156 133.95C98.1156 132.917 99.3656 132.117 100.866 131.55C102.366 130.983 104.116 130.7 106.116 130.7C108.116 130.7 109.866 130.983 111.366 131.55C112.866 132.117 114.116 132.917 115.116 133.95C116.116 134.95 116.866 136.15 117.366 137.55C117.866 138.95 118.116 140.467 118.116 142.1C118.116 143.767 117.866 145.3 117.366 146.7C116.866 148.067 116.116 149.267 115.116 150.3C114.116 151.3 112.866 152.083 111.366 152.65C109.866 153.217 108.116 153.5 106.116 153.5C104.116 153.5 102.366 153.217 100.866 152.65C99.3656 152.083 98.1156 151.3 97.1156 150.3C96.1156 149.267 95.3656 148.067 94.8656 146.7C94.3656 145.3 94.1156 143.767 94.1156 142.1ZM112.016 142.1C112.016 141.267 111.899 140.483 111.666 139.75C111.466 138.983 111.132 138.333 110.666 137.8C110.199 137.233 109.582 136.8 108.816 136.5C108.082 136.167 107.182 136 106.116 136C105.049 136 104.132 136.167 103.366 136.5C102.632 136.8 102.032 137.233 101.566 137.8C101.099 138.333 100.749 138.983 100.516 139.75C100.316 140.483 100.216 141.267 100.216 142.1C100.216 142.967 100.316 143.767 100.516 144.5C100.749 145.233 101.099 145.883 101.566 146.45C102.032 146.983 102.632 147.417 103.366 147.75C104.132 148.05 105.049 148.2 106.116 148.2C107.182 148.2 108.082 148.05 108.816 147.75C109.582 147.417 110.199 146.983 110.666 146.45C111.132 145.883 111.466 145.233 111.666 144.5C111.899 143.767 112.016 142.967 112.016 142.1ZM130.916 156.35C130.916 157.283 130.582 157.967 129.916 158.4C129.282 158.833 128.549 159.05 127.716 159.05C126.882 159.05 126.132 158.833 125.466 158.4C124.832 157.967 124.516 157.283 124.516 156.35V131.55C124.516 130.617 124.832 129.933 125.466 129.5C126.132 129.067 126.882 128.85 127.716 128.85C128.549 128.85 129.282 129.067 129.916 129.5C130.582 129.933 130.916 130.617 130.916 131.55V156.35ZM119.066 159.65C119.066 161.183 119.382 162.4 120.016 163.3C120.682 164.2 121.666 165 122.966 165.7C124.366 166.433 125.732 167.133 127.066 167.8C128.432 168.433 129.882 169.1 131.416 169.8C132.116 170.133 132.532 170.65 132.666 171.35C132.799 172.05 132.699 172.733 132.366 173.4C132.032 174.067 131.549 174.55 130.916 174.85C130.282 175.183 129.566 175.167 128.766 174.8C127.366 174.2 126.082 173.6 124.916 173C123.749 172.433 122.599 171.85 121.466 171.25C120.399 170.683 119.532 170.183 118.866 169.75C118.199 169.317 117.666 168.917 117.266 168.55C116.866 168.183 116.566 167.85 116.366 167.55C116.166 167.25 116.016 166.95 115.916 166.65H115.866C115.766 166.983 115.616 167.317 115.416 167.65C115.216 167.95 114.899 168.283 114.466 168.65C114.066 169.05 113.516 169.467 112.816 169.9C112.149 170.333 111.299 170.833 110.266 171.4C109.132 172 107.982 172.583 106.816 173.15C105.649 173.75 104.366 174.35 102.966 174.95C102.166 175.317 101.449 175.333 100.816 175C100.182 174.7 99.699 174.217 99.3656 173.55C99.0323 172.85 98.9323 172.133 99.0656 171.4C99.199 170.667 99.6156 170.133 100.316 169.8C101.849 169.1 103.282 168.433 104.616 167.8C105.982 167.133 107.366 166.433 108.766 165.7C110.066 165 111.032 164.2 111.666 163.3C112.332 162.4 112.666 161.183 112.666 159.65V158.45C112.666 157.517 112.982 156.833 113.616 156.4C114.282 155.967 115.032 155.75 115.866 155.75C116.699 155.75 117.432 155.967 118.066 156.4C118.732 156.833 119.066 157.517 119.066 158.45V159.65ZM142.773 137.7C142.007 137.7 141.44 137.433 141.073 136.9C140.707 136.367 140.523 135.733 140.523 135C140.523 134.233 140.707 133.583 141.073 133.05C141.44 132.517 142.007 132.25 142.773 132.25H157.823C159.423 132.25 160.523 132.55 161.123 133.15C161.757 133.75 162.073 134.833 162.073 136.4V141.95C162.073 143.35 161.99 144.617 161.823 145.75C161.657 146.883 161.34 147.967 160.873 149C160.44 150 159.823 150.983 159.023 151.95C158.223 152.917 157.173 153.933 155.873 155C154.573 156.067 152.99 157.217 151.123 158.45C149.29 159.683 147.107 161.067 144.573 162.6C143.873 163.033 143.14 163.117 142.373 162.85C141.64 162.55 141.073 162.1 140.673 161.5C140.273 160.9 140.073 160.2 140.073 159.4C140.073 158.6 140.44 157.967 141.173 157.5C143.44 156.133 145.373 154.933 146.973 153.9C148.607 152.833 149.957 151.883 151.023 151.05C152.123 150.217 152.973 149.45 153.573 148.75C154.207 148.05 154.673 147.35 154.973 146.65C155.307 145.917 155.507 145.167 155.573 144.4C155.673 143.633 155.723 142.75 155.723 141.75V138.85C155.723 138.083 155.34 137.7 154.573 137.7H142.773ZM176.423 169.85C176.423 170.783 176.09 171.467 175.423 171.9C174.79 172.333 174.04 172.55 173.173 172.55C172.34 172.55 171.59 172.333 170.923 171.9C170.29 171.467 169.973 170.783 169.973 169.85V131.55C169.973 130.617 170.29 129.933 170.923 129.5C171.59 129.067 172.34 128.85 173.173 128.85C174.04 128.85 174.79 129.067 175.423 129.5C176.09 129.933 176.423 130.617 176.423 131.55V169.85Z" fill="#4FC3F7"/>
<path d="M60.3852 16.7356C61.4146 16.7356 62.1224 16.9321 62.5084 17.3251C62.9159 17.7181 63.1197 18.4277 63.1197 19.4539V31.7027C63.1197 32.3141 62.9052 32.7617 62.4763 33.0455C62.0473 33.3293 61.5755 33.4713 61.0607 33.4713C60.546 33.4713 60.0742 33.3293 59.6452 33.0455C59.2377 32.7617 59.034 32.3141 59.034 31.7027V21.0915C59.034 20.5893 58.7873 20.3382 58.2941 20.3382H53.5971C53.1038 20.3382 52.7392 20.1635 52.5033 19.8142C52.2674 19.4649 52.1494 19.0391 52.1494 18.5369C52.1494 18.0347 52.2674 17.609 52.5033 17.2596C52.7392 16.9103 53.1038 16.7356 53.5971 16.7356H60.3852ZM72.1275 16.7356C73.157 16.7356 73.8648 16.9321 74.2508 17.3251C74.6583 17.7181 74.8621 18.4277 74.8621 19.4539V31.7027C74.8621 32.3141 74.6476 32.7617 74.2186 33.0455C73.7897 33.3293 73.3179 33.4713 72.8031 33.4713C72.2884 33.4713 71.8165 33.3293 71.3876 33.0455C70.9801 32.7617 70.7764 32.3141 70.7764 31.7027V21.0915C70.7764 20.5893 70.5297 20.3382 70.0364 20.3382H65.822C65.3288 20.3382 64.9641 20.1635 64.7282 19.8142C64.4923 19.4649 64.3743 19.0391 64.3743 18.5369C64.3743 18.0347 64.4923 17.609 64.7282 17.2596C64.9641 16.9103 65.3288 16.7356 65.822 16.7356H72.1275Z" fill="#4FC3F7"/>
<path d="M80.0784 47.4683V50.2069H48.1285V47.4683H80.0784ZM86.4683 41.0784V9.12853C86.4683 5.59944 83.6075 2.73856 80.0784 2.73856H48.1285C44.5994 2.73856 41.7386 5.59944 41.7386 9.12853V41.0784C41.7386 44.6075 44.5994 47.4683 48.1285 47.4683V50.2069L47.6587 50.1953C42.9911 49.9587 39.2482 46.2158 39.0116 41.5482L39 41.0784V9.12853C39 4.24454 42.8355 0.256095 47.6587 0.011589L48.1285 0H80.0784L80.5482 0.011589C85.3714 0.256095 89.2069 4.24454 89.2069 9.12853V41.0784L89.1953 41.5482C88.9587 46.2158 85.2158 49.9587 80.5482 50.1953L80.0784 50.2069V47.4683C83.6075 47.4683 86.4683 44.6075 86.4683 41.0784Z" fill="#4FC3F7"/>
<path d="M125.99 16.7356C126.993 16.7356 127.683 16.9217 128.06 17.294C128.457 17.6662 128.655 18.3382 128.655 19.3102V29.7013C128.655 30.6732 128.457 31.3453 128.06 31.7175C127.683 32.0897 126.993 32.2759 125.99 32.2759H112.194C111.191 32.2759 110.49 32.0897 110.093 31.7175C109.717 31.3453 109.529 30.6732 109.529 29.7013V19.3102C109.529 18.3382 109.717 17.6662 110.093 17.294C110.49 16.9217 111.191 16.7356 112.194 16.7356H125.99ZM114.326 20.0856C113.845 20.0856 113.605 20.3234 113.605 20.799V28.2124C113.605 28.6881 113.845 28.9259 114.326 28.9259H123.858C124.339 28.9259 124.579 28.6881 124.579 28.2124V20.799C124.579 20.3234 124.339 20.0856 123.858 20.0856H114.326Z" fill="#4FC3F7"/>
<path d="M133.872 47.4683V50.2069H101.922V47.4683H133.872ZM140.262 41.0784V9.12853C140.262 5.59944 137.401 2.73856 133.872 2.73856H101.922C98.3927 2.73856 95.5318 5.59944 95.5318 9.12853V41.0784C95.5318 44.6075 98.3927 47.4683 101.922 47.4683V50.2069L101.452 50.1953C96.7843 49.9587 93.0414 46.2158 92.8048 41.5482L92.7932 41.0784V9.12853C92.7932 4.24454 96.6287 0.256095 101.452 0.011589L101.922 0H133.872L134.341 0.011589C139.165 0.256095 143 4.24454 143 9.12853V41.0784L142.989 41.5482C142.752 46.2158 139.009 49.9587 134.341 50.1953L133.872 50.2069V47.4683C137.401 47.4683 140.262 44.6075 140.262 41.0784Z" fill="#4FC3F7"/>
<path d="M64.1035 69.3333C67.1037 69.3333 69.4477 70.0679 71.1353 71.5371C72.8229 72.9849 73.6667 75.0396 73.6667 77.7012C73.6667 80.3627 72.8229 82.428 71.1353 83.8972C69.4477 85.345 67.1037 86.069 64.1035 86.069C61.1033 86.069 58.7593 85.345 57.0717 83.8972C55.3841 82.428 54.5403 80.3627 54.5403 77.7012C54.5403 75.0396 55.3841 72.9849 57.0717 71.5371C58.7593 70.0679 61.1033 69.3333 64.1035 69.3333ZM64.1035 72.7827C63.1034 72.7827 62.2492 72.9104 61.5408 73.1659C60.8324 73.4214 60.2595 73.7728 59.8219 74.2199C59.3844 74.667 59.0615 75.1887 58.8531 75.7849C58.6448 76.381 58.5406 77.0198 58.5406 77.7012C58.5406 78.3825 58.6448 79.0213 58.8531 79.6175C59.0615 80.2136 59.3844 80.7353 59.8219 81.1824C60.2595 81.6296 60.8324 81.9809 61.5408 82.2364C62.2492 82.4919 63.1034 82.6196 64.1035 82.6196C65.1036 82.6196 65.9578 82.4919 66.6662 82.2364C67.3746 81.9809 67.9475 81.6296 68.3851 81.1824C68.8226 80.7353 69.1455 80.2136 69.3539 79.6175C69.5622 79.0213 69.6664 78.3825 69.6664 77.7012C69.6664 77.0198 69.5622 76.381 69.3539 75.7849C69.1455 75.1887 68.8226 74.667 68.3851 74.2199C67.9475 73.7728 67.3746 73.4214 66.6662 73.1659C65.9578 72.9104 65.1036 72.7827 64.1035 72.7827Z" fill="#4FC3F7"/>
<path d="M80.0784 101.261V104H48.1285V101.261H80.0784ZM86.4683 94.8715V62.9216C86.4683 59.3925 83.6075 56.5316 80.0784 56.5316H48.1285C44.5994 56.5316 41.7386 59.3925 41.7386 62.9216V94.8715C41.7386 98.4005 44.5994 101.261 48.1285 101.261V104L47.6587 103.988C42.9911 103.752 39.2482 100.009 39.0116 95.3413L39 94.8715V62.9216C39 58.0376 42.8355 54.0492 47.6587 53.8047L48.1285 53.7931H80.0784L80.5482 53.8047C85.3714 54.0492 89.2069 58.0376 89.2069 62.9216V94.8715L89.1953 95.3413C88.9587 100.009 85.2158 103.752 80.5482 103.988L80.0784 104V101.261C83.6075 101.261 86.4683 98.4005 86.4683 94.8715Z" fill="#4FC3F7"/>
<path d="M124.656 70.5287C125.711 70.5287 126.437 70.7253 126.833 71.1183C127.251 71.5113 127.46 72.2209 127.46 73.2471V85.4958C127.46 86.1072 127.24 86.5548 126.8 86.8386C126.36 87.1225 125.876 87.2644 125.348 87.2644C124.821 87.2644 124.337 87.1225 123.897 86.8386C123.457 86.5548 123.237 86.1072 123.237 85.4958V74.8846C123.237 74.3824 122.984 74.1313 122.478 74.1313H108.622C108.117 74.1313 107.743 73.9567 107.501 73.6073C107.259 73.258 107.138 72.8322 107.138 72.33C107.138 71.8279 107.259 71.4021 107.501 71.0528C107.743 70.7034 108.117 70.5287 108.622 70.5287H124.656Z" fill="#4FC3F7"/>
<path d="M133.872 101.261V104H101.922V101.261H133.872ZM140.262 94.8715V62.9216C140.262 59.3925 137.401 56.5316 133.872 56.5316H101.922C98.3927 56.5316 95.5318 59.3925 95.5318 62.9216V94.8715C95.5318 98.4005 98.3927 101.261 101.922 101.261V104L101.452 103.988C96.7843 103.752 93.0414 100.009 92.8048 95.3413L92.7932 94.8715V62.9216C92.7932 58.0376 96.6287 54.0492 101.452 53.8047L101.922 53.7931H133.872L134.341 53.8047C139.165 54.0492 143 58.0376 143 62.9216V94.8715L142.989 95.3413C142.752 100.009 139.009 103.752 134.341 103.988L133.872 104V101.261C137.401 101.261 140.262 98.4005 140.262 94.8715Z" fill="#4FC3F7"/>
</svg>
