<svg width="68" height="68" viewBox="0 0 68 68" fill="none" xmlns="http://www.w3.org/2000/svg">
<path d="M13.9826 10.9425C14.6557 10.9425 15.1184 11.071 15.3709 11.328C15.6373 11.5849 15.7705 12.0489 15.7705 12.7199V20.7287C15.7705 21.1284 15.6303 21.4211 15.3498 21.6067C15.0694 21.7922 14.7609 21.885 14.4243 21.885C14.0877 21.885 13.7792 21.7922 13.4988 21.6067C13.2323 21.4211 13.0991 21.1284 13.0991 20.7287V13.7906C13.0991 13.4622 12.9378 13.298 12.6153 13.298H9.54422C9.22169 13.298 8.98329 13.1838 8.82904 12.9554C8.67478 12.727 8.59766 12.4486 8.59766 12.1203C8.59766 11.7919 8.67478 11.5135 8.82904 11.2851C8.98329 11.0567 9.22169 10.9425 9.54422 10.9425H13.9826ZM21.6603 10.9425C22.3334 10.9425 22.7962 11.071 23.0486 11.328C23.315 11.5849 23.4482 12.0489 23.4482 12.7199V20.7287C23.4482 21.1284 23.308 21.4211 23.0275 21.6067C22.7471 21.7922 22.4386 21.885 22.102 21.885C21.7654 21.885 21.4569 21.7922 21.1765 21.6067C20.91 21.4211 20.7768 21.1284 20.7768 20.7287V13.7906C20.7768 13.4622 20.6155 13.298 20.293 13.298H17.5375C17.2149 13.298 16.9765 13.1838 16.8223 12.9554C16.668 12.727 16.5909 12.4486 16.5909 12.1203C16.5909 11.7919 16.668 11.5135 16.8223 11.2851C16.9765 11.0567 17.2149 10.9425 17.5375 10.9425H21.6603Z" fill="#7C7C7C"/>
<path d="M26.8589 31.037V32.8276H5.96865V31.037H26.8589ZM31.037 26.8589V5.96865C31.037 3.66118 29.1664 1.7906 26.8589 1.7906H5.96865C3.66118 1.7906 1.7906 3.66118 1.7906 5.96865V26.8589C1.7906 29.1664 3.66118 31.037 5.96865 31.037V32.8276L5.66148 32.82C2.60957 32.6653 0.162289 30.218 0.00757739 27.1661L0 26.8589V5.96865C9.31322e-08 2.77528 2.50783 0.167447 5.66148 0.00757739L5.96865 0H26.8589L27.1661 0.00757739C30.3198 0.167447 32.8276 2.77528 32.8276 5.96865V26.8589L32.82 27.1661C32.6653 30.218 30.218 32.6653 27.1661 32.82L26.8589 32.8276V31.037C29.1664 31.037 31.037 29.1664 31.037 26.8589Z" fill="#7C7C7C"/>
<path d="M56.8781 10.9425C57.5342 10.9425 57.9852 11.0642 58.2312 11.3076C58.4909 11.5509 58.6207 11.9904 58.6207 12.6259V19.4201C58.6207 20.0556 58.4909 20.495 58.2312 20.7384C57.9852 20.9817 57.5342 21.1034 56.8781 21.1034H47.8576C47.2016 21.1034 46.7437 20.9817 46.484 20.7384C46.238 20.495 46.115 20.0556 46.115 19.4201V12.6259C46.115 11.9904 46.238 11.5509 46.484 11.3076C46.7437 11.0642 47.2016 10.9425 47.8576 10.9425H56.8781ZM49.2517 13.1329C48.9373 13.1329 48.7801 13.2884 48.7801 13.5994V18.4466C48.7801 18.7576 48.9373 18.913 49.2517 18.913H55.4841C55.7984 18.913 55.9556 18.7576 55.9556 18.4466V13.5994C55.9556 13.2884 55.7984 13.1329 55.4841 13.1329H49.2517Z" fill="#7C7C7C"/>
<path d="M62.0313 31.037V32.8276H41.141V31.037H62.0313ZM66.2094 26.8589V5.96865C66.2094 3.66118 64.3388 1.7906 62.0313 1.7906H41.141C38.8335 1.7906 36.963 3.66118 36.963 5.96865V26.8589C36.963 29.1664 38.8335 31.037 41.141 31.037V32.8276L40.8338 32.82C37.7819 32.6653 35.3347 30.218 35.1799 27.1661L35.1724 26.8589V5.96865C35.1724 2.77528 37.6802 0.167447 40.8338 0.00757739L41.141 0H62.0313L62.3385 0.00757739C65.4921 0.167447 68 2.77528 68 5.96865V26.8589L67.9924 27.1661C67.8377 30.218 65.3904 32.6653 62.3385 32.82L62.0313 32.8276V31.037C64.3388 31.037 66.2094 29.1664 66.2094 26.8589Z" fill="#7C7C7C"/>
<path d="M16.414 45.3333C18.3757 45.3333 19.9083 45.8136 21.0117 46.7742C22.1152 47.7209 22.6669 49.0644 22.6669 50.8046C22.6669 52.5448 22.1152 53.8952 21.0117 54.8558C19.9083 55.8025 18.3757 56.2759 16.414 56.2759C14.4523 56.2759 12.9198 55.8025 11.8163 54.8558C10.7129 53.8952 10.1611 52.5448 10.1611 50.8046C10.1611 49.0644 10.7129 47.7209 11.8163 46.7742C12.9198 45.8136 14.4523 45.3333 16.414 45.3333ZM16.414 47.5887C15.7601 47.5887 15.2016 47.6722 14.7384 47.8393C14.2752 48.0063 13.9006 48.236 13.6145 48.5284C13.3284 48.8208 13.1173 49.1618 12.9811 49.5516C12.8448 49.9415 12.7767 50.3591 12.7767 50.8046C12.7767 51.2501 12.8448 51.6678 12.9811 52.0576C13.1173 52.4474 13.3284 52.7885 13.6145 53.0808C13.9006 53.3732 14.2752 53.6029 14.7384 53.77C15.2016 53.937 15.7601 54.0205 16.414 54.0205C17.0679 54.0205 17.6264 53.937 18.0896 53.77C18.5528 53.6029 18.9274 53.3732 19.2135 53.0808C19.4996 52.7885 19.7107 52.4474 19.847 52.0576C19.9832 51.6678 20.0513 51.2501 20.0513 50.8046C20.0513 50.3591 19.9832 49.9415 19.847 49.5516C19.7107 49.1618 19.4996 48.8208 19.2135 48.5284C18.9274 48.236 18.5528 48.0063 18.0896 47.8393C17.6264 47.6722 17.0679 47.5887 16.414 47.5887Z" fill="#7C7C7C"/>
<path d="M26.8589 66.2094V68H5.96865V66.2094H26.8589ZM31.037 62.0314V41.1411C31.037 38.8336 29.1664 36.963 26.8589 36.963H5.96865C3.66118 36.963 1.7906 38.8336 1.7906 41.1411V62.0314C1.7906 64.3388 3.66118 66.2094 5.96865 66.2094V68L5.66148 67.9924C2.60957 67.8377 0.162289 65.3904 0.00757739 62.3385L0 62.0314V41.1411C9.31322e-08 37.9477 2.50783 35.3399 5.66148 35.18L5.96865 35.1724H26.8589L27.1661 35.18C30.3198 35.3399 32.8276 37.9477 32.8276 41.1411V62.0314L32.82 62.3385C32.6653 65.3904 30.218 67.8377 27.1661 67.9924L26.8589 68V66.2094C29.1664 66.2094 31.037 64.3388 31.037 62.0314Z" fill="#7C7C7C"/>
<path d="M56.0056 46.1149C56.6959 46.1149 57.1704 46.2434 57.4293 46.5004C57.7025 46.7573 57.8391 47.2213 57.8391 47.8923V55.9011C57.8391 56.3008 57.6953 56.5935 57.4077 56.7791C57.1201 56.9647 56.8037 57.0575 56.4586 57.0575C56.1135 57.0575 55.7971 56.9647 55.5095 56.7791C55.2219 56.5935 55.0781 56.3008 55.0781 55.9011V48.963C55.0781 48.6346 54.9127 48.4705 54.582 48.4705H45.5224C45.1917 48.4705 44.9472 48.3563 44.789 48.1278C44.6308 47.8994 44.5518 47.621 44.5518 47.2927C44.5518 46.9643 44.6308 46.686 44.789 46.4576C44.9472 46.2291 45.1917 46.1149 45.5224 46.1149H56.0056Z" fill="#7C7C7C"/>
<path d="M62.0313 66.2094V68H41.141V66.2094H62.0313ZM66.2094 62.0314V41.1411C66.2094 38.8336 64.3388 36.963 62.0313 36.963H41.141C38.8335 36.963 36.963 38.8336 36.963 41.1411V62.0314C36.963 64.3388 38.8335 66.2094 41.141 66.2094V68L40.8338 67.9924C37.7819 67.8377 35.3347 65.3904 35.1799 62.3385L35.1724 62.0314V41.1411C35.1724 37.9477 37.6802 35.3399 40.8338 35.18L41.141 35.1724H62.0313L62.3385 35.18C65.4921 35.3399 68 37.9477 68 41.1411V62.0314L67.9924 62.3385C67.8377 65.3904 65.3904 67.8377 62.3385 67.9924L62.0313 68V66.2094C64.3388 66.2094 66.2094 64.3388 66.2094 62.0314Z" fill="#7C7C7C"/>
</svg>
